<svg xmlns="http://www.w3.org/2000/svg" width="940" height="315" viewBox="0 0 940 315" role="img" aria-label="The Worktrees pane">
<title>The Worktrees pane</title>
<rect width="940" height="315" rx="12" fill="#262624"/>
<g font-family="ui-monospace, SFMono-Regular, Menlo, Consolas, 'DejaVu Sans Mono', 'Liberation Mono', monospace" font-size="13" xml:space="preserve">
<rect x="20" y="20" width="900" height="275" rx="10" fill="#1f1e1d" stroke="#3d3c38"/><text x="36" y="46" fill="#ECEAE4" font-family="-apple-system, BlinkMacSystemFont, 'Segoe UI', Helvetica, Arial, sans-serif" font-size="14" font-weight="600">Worktrees</text><text x="904" y="46" fill="#85837d" font-family="-apple-system, BlinkMacSystemFont, 'Segoe UI', Helvetica, Arial, sans-serif" font-size="16" text-anchor="end">×</text><line x1="20" x2="920" y1="60" y2="60" stroke="#3d3c38"/><text x="114.0" y="74" fill="#85837d" textLength="421.2" lengthAdjust="spacingAndGlyphs">4 worktrees · 2 to prune · 1 with changes · 1 unpushed</text><text x="114.0" y="95" fill="#6f6e69" textLength="546.0" lengthAdjust="spacingAndGlyphs">Prune removes 2 merged worktrees with their local and remote branches.</text><text x="114.0" y="116" fill="#6f6e69" textLength="452.4" lengthAdjust="spacingAndGlyphs">2 worktrees with changes, unmerged commits or in use stay.</text><text x="114.0" y="158" fill="#ECEAE4" textLength="117.0" lengthAdjust="spacingAndGlyphs">Prune worktrees</text><text x="38.0" y="200" fill="#478487" textLength="7.8" lengthAdjust="spacingAndGlyphs">●</text><text x="53.6" y="200" fill="#b0b0b0" textLength="31.2" lengthAdjust="spacingAndGlyphs">main</text><text x="92.6" y="200" fill="#6f6e69" textLength="374.4" lengthAdjust="spacingAndGlyphs">· 2 changed files · main checkout · this session</text><text x="722.6" y="200" fill="#85837d" textLength="15.6" lengthAdjust="spacingAndGlyphs">5h</text><text x="831.8" y="200" fill="#e06c75" textLength="23.4" lengthAdjust="spacingAndGlyphs">−11</text><text x="792.8" y="200" fill="#6fbe49" textLength="23.4" lengthAdjust="spacingAndGlyphs">+34</text><text x="863.0" y="200" fill="#6f6e69" textLength="7.8" lengthAdjust="spacingAndGlyphs">–</text><text x="38.0" y="221" fill="#e5c07b" textLength="7.8" lengthAdjust="spacingAndGlyphs">●</text><text x="53.6" y="221" fill="#b0b0b0" textLength="148.2" lengthAdjust="spacingAndGlyphs">feat/worktrees-pane</text><text x="209.6" y="221" fill="#6f6e69" textLength="195.0" lengthAdjust="spacingAndGlyphs">· 3 changed files · PR #1</text><text x="714.8" y="221" fill="#85837d" textLength="23.4" lengthAdjust="spacingAndGlyphs">12m</text><text x="831.8" y="221" fill="#e06c75" textLength="23.4" lengthAdjust="spacingAndGlyphs">−48</text><text x="785.0" y="221" fill="#6fbe49" textLength="31.2" lengthAdjust="spacingAndGlyphs">+612</text><text x="863.0" y="221" fill="#e5c07b" textLength="7.8" lengthAdjust="spacingAndGlyphs">●</text><text x="886.4" y="221" fill="#85837d" textLength="7.8" lengthAdjust="spacingAndGlyphs">×</text><text x="38.0" y="242" fill="#6f6e69" textLength="7.8" lengthAdjust="spacingAndGlyphs">○</text><text x="53.6" y="242" fill="#6f6e69" textLength="226.2" lengthAdjust="spacingAndGlyphs">challenge-view-display-fields</text><text x="287.6" y="242" fill="#6f6e69" textLength="140.4" lengthAdjust="spacingAndGlyphs">· merged · PR #168</text><text x="722.6" y="242" fill="#85837d" textLength="15.6" lengthAdjust="spacingAndGlyphs">6h</text><text x="839.6" y="242" fill="#e06c75" textLength="15.6" lengthAdjust="spacingAndGlyphs">−0</text><text x="808.4" y="242" fill="#6fbe49" textLength="15.6" lengthAdjust="spacingAndGlyphs">+0</text><text x="863.0" y="242" fill="#6fbe49" textLength="7.8" lengthAdjust="spacingAndGlyphs">✓</text><text x="886.4" y="242" fill="#85837d" textLength="7.8" lengthAdjust="spacingAndGlyphs">×</text><text x="38.0" y="263" fill="#6f6e69" textLength="7.8" lengthAdjust="spacingAndGlyphs">○</text><text x="53.6" y="263" fill="#6f6e69" textLength="187.2" lengthAdjust="spacingAndGlyphs">owl-mascot-guest-avatars</text><text x="248.6" y="263" fill="#6f6e69" textLength="140.4" lengthAdjust="spacingAndGlyphs">· merged · PR #173</text><text x="722.6" y="263" fill="#85837d" textLength="15.6" lengthAdjust="spacingAndGlyphs">6h</text><text x="839.6" y="263" fill="#e06c75" textLength="15.6" lengthAdjust="spacingAndGlyphs">−0</text><text x="808.4" y="263" fill="#6fbe49" textLength="15.6" lengthAdjust="spacingAndGlyphs">+0</text><text x="863.0" y="263" fill="#6fbe49" textLength="7.8" lengthAdjust="spacingAndGlyphs">✓</text><text x="886.4" y="263" fill="#85837d" textLength="7.8" lengthAdjust="spacingAndGlyphs">×</text><text x="38.0" y="284" fill="#e5c07b" textLength="7.8" lengthAdjust="spacingAndGlyphs">↑</text><text x="53.6" y="284" fill="#b0b0b0" textLength="124.8" lengthAdjust="spacingAndGlyphs">feat/totem-sizes</text><text x="186.2" y="284" fill="#6f6e69" textLength="156.0" lengthAdjust="spacingAndGlyphs">· 2 unpushed commits</text><text x="722.6" y="284" fill="#85837d" textLength="15.6" lengthAdjust="spacingAndGlyphs">2d</text><text x="824.0" y="284" fill="#e06c75" textLength="31.2" lengthAdjust="spacingAndGlyphs">−210</text><text x="785.0" y="284" fill="#6fbe49" textLength="23.4" lengthAdjust="spacingAndGlyphs">+96</text><text x="863.0" y="284" fill="#e06c75" textLength="7.8" lengthAdjust="spacingAndGlyphs">×</text><text x="886.4" y="284" fill="#85837d" textLength="7.8" lengthAdjust="spacingAndGlyphs">×</text>
<svg xmlns="http://www.w3.org/2000/svg" x="38" y="56" viewBox="3 0 24 26" width="60" height="65" shape-rendering="crispEdges"><g visibility="hidden"><animate attributeName="visibility" values="visible;hidden" keyTimes="0.0000;0.9588" calcMode="discrete" dur="3400ms" repeatCount="indefinite"/><g transform="translate(0 14)"><g transform="translate(-2 0)"><rect x="7" y="5" width="10" height="5" fill="#D77757"/><rect x="8" y="10" width="1" height="2" fill="#D77757"/><rect x="10" y="10" width="1" height="2" fill="#D77757"/><rect x="13" y="10" width="1" height="2" fill="#D77757"/><rect x="15" y="10" width="1" height="2" fill="#D77757"/><rect x="5" y="7" width="2" height="1" fill="#D77757"/><rect x="17" y="7" width="1" height="1" fill="#D77757"/><rect x="18" y="6" width="1" height="1" fill="#D77757"/><rect x="10" y="6" width="1" height="2" fill="#141413"/><rect x="15" y="6" width="1" height="2" fill="#141413"/></g></g></g><g visibility="hidden"><animate attributeName="visibility" values="hidden;visible" keyTimes="0;0.9588" calcMode="discrete" dur="3400ms" repeatCount="indefinite"/><g transform="translate(0 14)"><g transform="translate(-2 0)"><rect x="7" y="5" width="10" height="5" fill="#D77757"/><rect x="8" y="10" width="1" height="2" fill="#D77757"/><rect x="10" y="10" width="1" height="2" fill="#D77757"/><rect x="13" y="10" width="1" height="2" fill="#D77757"/><rect x="15" y="10" width="1" height="2" fill="#D77757"/><rect x="5" y="7" width="2" height="1" fill="#D77757"/><rect x="17" y="7" width="1" height="1" fill="#D77757"/><rect x="18" y="6" width="1" height="1" fill="#D77757"/><rect x="10" y="7" width="1" height="1" fill="#141413"/><rect x="15" y="7" width="1" height="1" fill="#141413"/></g></g></g><rect x="24" y="11" width="2" height="15" fill="#8B5A3C"/><rect x="25" y="11" width="1" height="15" fill="#6B4429"/><rect x="20" y="4" width="8" height="6" fill="#7FB685"/><rect x="21" y="3" width="6" height="1" fill="#7FB685"/><rect x="19" y="6" width="1" height="3" fill="#7FB685"/><rect x="21" y="10" width="6" height="2" fill="#7FB685"/><rect x="22" y="5" width="1" height="1" fill="#5E9466"/><rect x="25" y="7" width="1" height="1" fill="#5E9466"/><rect x="21" y="8" width="1" height="1" fill="#5E9466"/><rect x="26" y="4" width="1" height="1" fill="#5E9466"/><rect x="23" y="10" width="1" height="1" fill="#5E9466"/><rect x="23" y="17" width="1" height="1" fill="#8B5A3C"/><rect x="22" y="17" width="1" height="1" fill="#8B5A3C"/><rect x="21" y="16" width="1" height="1" fill="#8B5A3C"/><rect x="20" y="15" width="2" height="1" fill="#7FB685"/><g visibility="hidden"><animate attributeName="visibility" values="visible;hidden" keyTimes="0.0000;0.3030" calcMode="discrete" dur="1650ms" repeatCount="indefinite"/><rect x="17" y="20" width="1" height="1" fill="#E0524C"/><rect x="17" y="21" width="1" height="1" fill="#E0524C"/><rect x="18" y="21" width="1" height="1" fill="#E0524C"/><rect x="18" y="19" width="1" height="1" fill="#9A9893"/><rect x="19" y="18" width="1" height="1" fill="#9A9893"/><rect x="20" y="17" width="1" height="1" fill="#9A9893"/><rect x="21" y="16" width="1" height="1" fill="#9A9893"/><rect x="19" y="20" width="1" height="1" fill="#9A9893"/><rect x="20" y="20" width="1" height="1" fill="#9A9893"/><rect x="21" y="19" width="1" height="1" fill="#9A9893"/><rect x="22" y="18" width="1" height="1" fill="#9A9893"/></g><g visibility="hidden"><animate attributeName="visibility" values="hidden;visible;hidden" keyTimes="0;0.3030;0.4545" calcMode="discrete" dur="1650ms" repeatCount="indefinite"/><rect x="17" y="20" width="1" height="1" fill="#E0524C"/><rect x="17" y="21" width="1" height="1" fill="#E0524C"/><rect x="18" y="21" width="1" height="1" fill="#E0524C"/><rect x="18" y="20" width="1" height="1" fill="#9A9893"/><rect x="19" y="19" width="1" height="1" fill="#9A9893"/><rect x="20" y="18" width="1" height="1" fill="#9A9893"/><rect x="21" y="17" width="1" height="1" fill="#9A9893"/><rect x="22" y="16" width="1" height="1" fill="#9A9893"/></g><g visibility="hidden"><animate attributeName="visibility" values="hidden;visible" keyTimes="0;0.4545" calcMode="discrete" dur="1650ms" repeatCount="indefinite"/><rect x="17" y="20" width="1" height="1" fill="#E0524C"/><rect x="17" y="21" width="1" height="1" fill="#E0524C"/><rect x="18" y="21" width="1" height="1" fill="#E0524C"/><rect x="18" y="19" width="1" height="1" fill="#9A9893"/><rect x="19" y="18" width="1" height="1" fill="#9A9893"/><rect x="20" y="17" width="1" height="1" fill="#9A9893"/><rect x="21" y="16" width="1" height="1" fill="#9A9893"/><rect x="19" y="20" width="1" height="1" fill="#9A9893"/><rect x="20" y="20" width="1" height="1" fill="#9A9893"/><rect x="21" y="19" width="1" height="1" fill="#9A9893"/><rect x="22" y="18" width="1" height="1" fill="#9A9893"/></g><rect x="20" y="15" width="1" height="1" fill="#7FB685" opacity="0"><animate attributeName="y" values="15;15;17;19;21;23;24" calcMode="discrete" dur="1650ms" repeatCount="indefinite"/><animate attributeName="x" values="20;20;21;20;21;20;21" calcMode="discrete" dur="1650ms" repeatCount="indefinite"/><animate attributeName="opacity" values="0;1;1;1;1;1;0.5" calcMode="discrete" dur="1650ms" repeatCount="indefinite"/></rect></svg>
</g>
</svg>
